<?xml version="1.0" encoding="utf-8"?>
<!-- Generator: Adobe Illustrator 24.0.2, SVG Export Plug-In . SVG Version: 6.00 Build 0)  -->
<svg version="1.1" id="Layer_1" xmlns="http://www.w3.org/2000/svg" xmlns:xlink="http://www.w3.org/1999/xlink" x="0px" y="0px"
	 viewBox="0 0 85 85" style="enable-background:new 0 0 85 85;" xml:space="preserve">
<style type="text/css">
	.st0{fill:#FFFFFF;}
	.st1{display:none;}
	.st2{display:inline;fill:#8CC9F0;}
	.st3{fill:#8CC9F0;}
	.st4{font-family:'BasicalineRegular';}
	.st5{font-size:34.4459px;}
</style>
<g>
	<path class="st0" d="M42.5,0C66,0,85,19,85,42.5S66,85,42.5,85S0,66,0,42.5S19,0,42.5,0z"/>
</g>
<g class="st1">
	<path class="st2" d="M53.5,34.6c0,1.1-0.9,1.9-1.9,1.9c-1.1,0-1.9-0.9-1.9-1.9c0-1.1,0.9-1.9,1.9-1.9
		C52.7,32.7,53.5,33.5,53.5,34.6z M58,28.8c0-0.4-0.3-0.6-0.7-0.6c-7,0-10.9,1.6-15.9,6.6c-1.1,1.2-2.3,2.5-3.5,3.9l-7.6,0.4
		c-0.2,0-0.4,0.1-0.5,0.3l-4.5,7.7c-0.1,0.2-0.1,0.6,0.1,0.8l1.3,1.3c0.1,0.1,0.3,0.2,0.5,0.2c0.1,0,0.1,0,0.2,0l5.6-1.7l5.7,5.7
		l-1.7,5.6c-0.1,0.2,0,0.5,0.2,0.6l1.3,1.3c0.1,0.1,0.3,0.2,0.5,0.2c0.1,0,0.2,0,0.3-0.1l7.7-4.5c0.2-0.1,0.3-0.3,0.3-0.5l0.4-7.6
		c1.4-1.2,2.8-2.4,3.9-3.5C56.2,40,58,35.5,58,28.8z"/>
</g>
<text transform="matrix(1 0 0 1 29.1521 52.0844)" class="st3 st4 st5">M</text>
</svg>
